<svg width="167" height="188" viewBox="0 0 167 188" fill="none" xmlns="http://www.w3.org/2000/svg">
<path d="M160.995 55.3918C160.995 51.4621 158.898 47.8313 155.495 45.8664L88.998 7.47383C85.5946 5.50888 81.4015 5.50889 77.998 7.47383L11.5 45.8664L11.1846 46.0549C7.96757 48.058 6.00017 51.5849 6 55.3918V132.177C6 136.107 8.09666 139.738 11.5 141.703L77.998 180.096C81.2952 181.999 85.3334 182.059 88.6768 180.275L88.998 180.096L155.495 141.703C158.898 139.738 160.995 136.107 160.995 132.177V55.3918ZM166.996 132.177C166.996 138.25 163.756 143.863 158.496 146.9L91.998 185.292C86.7383 188.329 80.2578 188.329 74.998 185.292L8.5 146.9C3.24022 143.863 0 138.25 0 132.177V55.3918C0.000170947 49.3185 3.24039 43.7068 8.5 40.6701L74.998 2.27755C80.2579 -0.759167 86.7383 -0.759196 91.998 2.27755L158.496 40.6701C163.755 43.7069 166.996 49.3187 166.996 55.3918V132.177Z" fill="white"/>
<path d="M105.269 128.629L95.9778 133.6V106.504L105.269 100.95V128.629Z" fill="white"/>
<path d="M118.606 120.291L109.315 125.262V106.383L118.606 100.83V120.291Z" fill="white"/>
<path d="M131.943 113.625L122.652 118.597V91.4996L131.943 85.9469V113.625Z" fill="white"/>
<path fill-rule="evenodd" clip-rule="evenodd" d="M77.9983 23.4108C81.4017 21.446 85.595 21.4459 88.9983 23.4108L107.183 33.9098C104 32.5423 100.327 32.7456 97.2932 34.5182L41.2493 67.2604V84.8112L33.259 80.2682V120.141L72.5999 143.2V101.16L65.3811 96.7985V81.2565L121.823 48.7389C125.252 46.7636 129.479 46.7822 132.89 48.7877L133.449 49.1168C133.61 49.2115 133.777 49.2909 133.947 49.361L141.694 53.8346C145.097 55.7996 147.194 59.431 147.194 63.361V124.209C147.194 128.139 145.097 131.77 141.694 133.735L88.9983 164.159C85.5949 166.124 81.4017 166.124 77.9983 164.159L25.2854 133.725C21.8919 131.758 19.802 128.132 19.802 124.209V63.361C19.802 59.431 21.8986 55.7996 25.302 53.8346L77.9983 23.4108ZM87.4504 91.7907V153.814L137.947 124.76V63.1686L87.4504 91.7907Z" fill="white"/>
</svg>
